_________________________  Visit us at _________________________
  
http://p2pdl.com  ____________________________  http://p2pdl.com

 
http://i.imgur.com/A3uta.jpg


Release Title: Safe (2012)
					
Genre: Action | Crime | Thriller
IMDb Rating: 6.5/10

 
http://cinemahouse.in/movie/187/Safe


Plot: Mei, a young girl whose memory holds a priceless numerical code, finds herself pursued by the Triads, the Russian mob, and corrupt NYC cops. Coming to her aid is an ex-cage fighter whose life was destroyed by the gangsters on Mei's trail.


Director:   Boaz Yakin


Stars: Jason Statham, Catherine Chan and Chris Sarandon.


Rated: R for strong violence throughout, and for language.


General
Format                         : Matroska
Format version                 : Version 2
File size                      : 1.49 GiB
Duration                       : 1h 34mn
Overall bit rate               : 2 264 Kbps
Movie name                     : Safe 2012 1080p BRRip x264 6ch AC3 - ViZNU [P2PDL]
Source                         : 1080p.BluRay.x264-WEST(Thanks)

Video
ID                             : 1
Format                         : AVC
Format/Info                    : Advanced Video Codecg
Codec ID                       : V_MPEG4/ISO/AVC
Duration                       : 1h 34mn
Bit rate                       : 1 880 Kbps
Width                          : 1 920 pixels
Height                         : 824 pixels
Display aspect ratio           : 2.35:1
Frame rate                     : 23.976 fps
Color space                    : YUV
Chroma subsampling             : 4:2:0
Stream size                    : 1.21 GiB (81%)
Writing library                : x264 core 125 r2200 999b753
Default                        : Yes


Audio
ID                             : 2
Format                         : AC-3
Format/Info                    : Audio Coding 3
Codec ID                       : A_AC3
Duration                       : 1h 34mn
Bit rate mode                  : Constant
Bit rate                       : 384 Kbps
Channel(s)                     : 6 channels
Channel positions              : Front: L C R, Side: L R, LFE
Sampling rate                  : 44.1 KHz
Stream size                    : 259 MiB (17%)
Language                       : English
Default                        : Yes



Subtitle                       : No


Screens:
 
http://i.imgbox.com/acbYPfv8.png
 
http://i.imgbox.com/abhZqmub.png
 
http://i.imgbox.com/abmoX4So.png
 
http://i.imgbox.com/abnBb7vJ.png
 
http://i.imgbox.com/adpzQBX4.png
 
http://i.imgbox.com/aclSlRhQ.png
 
http://i.imgbox.com/adxij6vW.png
 
http://i.imgbox.com/acxUa3hH.png



Sample:



------------------------------------------------------------------------


Recommend you to use VLC player. Check sample to be sure. Enjoy!


Greets to: srkfan, Vitamin_X, MgB, staff members at ExtraTorrent, TPB,KAT, 1337x, PublicHD, Ahashare, SilverTorrent, TorrentMafia, P2PDL, and all others


Encoder Notes: Looking For Early Access To Anything You Can Provide DVDScr, R5, DVDRips, BluRay, Direct Audio, Early Music Releases, Seedboxes, Links, Dedicated Servers anything u can provide, Advance / Promo CDs/DVDs. If You Got anything to offer contact me at "contact@tinym.eu"
